<mxfile host="app.diagrams.net" agent="Mozilla/5.0 (Windows NT 10.0; Win64; x64) AppleWebKit/537.36 (KHTML, like Gecko) Chrome/140.0.0.0 Safari/537.36" version="28.2.0">
  <diagram name="Page-1" id="mjyB8uPjr6K_vSose3lS">
    <mxGraphModel dx="1464" dy="671" grid="1" gridSize="10" guides="1" tooltips="1" connect="1" arrows="1" fold="1" page="1" pageScale="1" pageWidth="850" pageHeight="1100" math="0" shadow="0">
      <root>
        <mxCell id="0" />
        <mxCell id="1" parent="0" />
        <mxCell id="2mTm614n4sQ_2W02o-e6-27" value="" style="edgeStyle=orthogonalEdgeStyle;rounded=0;orthogonalLoop=1;jettySize=auto;html=1;" edge="1" parent="1" source="2mTm614n4sQ_2W02o-e6-29" target="2mTm614n4sQ_2W02o-e6-36">
          <mxGeometry relative="1" as="geometry" />
        </mxCell>
        <mxCell id="2mTm614n4sQ_2W02o-e6-28" style="edgeStyle=orthogonalEdgeStyle;rounded=0;orthogonalLoop=1;jettySize=auto;html=1;entryX=0.5;entryY=0;entryDx=0;entryDy=0;" edge="1" parent="1" source="2mTm614n4sQ_2W02o-e6-29" target="2mTm614n4sQ_2W02o-e6-32">
          <mxGeometry relative="1" as="geometry" />
        </mxCell>
        <mxCell id="2mTm614n4sQ_2W02o-e6-29" value="Masukan Email dan passsword" style="shape=parallelogram;perimeter=parallelogramPerimeter;whiteSpace=wrap;html=1;fixedSize=1;" vertex="1" parent="1">
          <mxGeometry x="554" y="390" width="144" height="80" as="geometry" />
        </mxCell>
        <mxCell id="2mTm614n4sQ_2W02o-e6-30" value="" style="edgeStyle=orthogonalEdgeStyle;rounded=0;orthogonalLoop=1;jettySize=auto;html=1;entryX=0;entryY=0.25;entryDx=0;entryDy=0;" edge="1" parent="1" source="2mTm614n4sQ_2W02o-e6-32" target="2mTm614n4sQ_2W02o-e6-34">
          <mxGeometry relative="1" as="geometry">
            <mxPoint x="754" y="600" as="targetPoint" />
          </mxGeometry>
        </mxCell>
        <mxCell id="2mTm614n4sQ_2W02o-e6-31" value="" style="edgeStyle=orthogonalEdgeStyle;rounded=0;orthogonalLoop=1;jettySize=auto;html=1;" edge="1" parent="1" source="2mTm614n4sQ_2W02o-e6-32" target="2mTm614n4sQ_2W02o-e6-39">
          <mxGeometry relative="1" as="geometry" />
        </mxCell>
        <mxCell id="2mTm614n4sQ_2W02o-e6-32" value="Apakah email dan password sesuai?" style="rhombus;whiteSpace=wrap;html=1;" vertex="1" parent="1">
          <mxGeometry x="554" y="545" width="144" height="110" as="geometry" />
        </mxCell>
        <mxCell id="2mTm614n4sQ_2W02o-e6-33" style="edgeStyle=orthogonalEdgeStyle;rounded=0;orthogonalLoop=1;jettySize=auto;html=1;" edge="1" parent="1" source="2mTm614n4sQ_2W02o-e6-34" target="2mTm614n4sQ_2W02o-e6-29">
          <mxGeometry relative="1" as="geometry">
            <Array as="points">
              <mxPoint x="990" y="610" />
              <mxPoint x="990" y="430" />
            </Array>
            <mxPoint x="750" y="430" as="targetPoint" />
          </mxGeometry>
        </mxCell>
        <mxCell id="2mTm614n4sQ_2W02o-e6-34" value="Tampilkan jika salah" style="shape=parallelogram;perimeter=parallelogramPerimeter;whiteSpace=wrap;html=1;fixedSize=1;" vertex="1" parent="1">
          <mxGeometry x="810" y="580" width="156" height="70" as="geometry" />
        </mxCell>
        <mxCell id="2mTm614n4sQ_2W02o-e6-35" value="" style="edgeStyle=orthogonalEdgeStyle;rounded=0;orthogonalLoop=1;jettySize=auto;html=1;" edge="1" parent="1" source="2mTm614n4sQ_2W02o-e6-36" target="2mTm614n4sQ_2W02o-e6-37">
          <mxGeometry relative="1" as="geometry" />
        </mxCell>
        <mxCell id="2mTm614n4sQ_2W02o-e6-36" value="Login" style="whiteSpace=wrap;html=1;" vertex="1" parent="1">
          <mxGeometry x="566" y="240" width="120" height="60" as="geometry" />
        </mxCell>
        <mxCell id="2mTm614n4sQ_2W02o-e6-37" value="Mulai" style="rounded=1;whiteSpace=wrap;html=1;arcSize=50;" vertex="1" parent="1">
          <mxGeometry x="566" y="100" width="120" height="60" as="geometry" />
        </mxCell>
        <mxCell id="2mTm614n4sQ_2W02o-e6-38" value="" style="edgeStyle=orthogonalEdgeStyle;rounded=0;orthogonalLoop=1;jettySize=auto;html=1;" edge="1" parent="1" source="2mTm614n4sQ_2W02o-e6-39" target="2mTm614n4sQ_2W02o-e6-41">
          <mxGeometry relative="1" as="geometry" />
        </mxCell>
        <mxCell id="2mTm614n4sQ_2W02o-e6-39" value="Ke halaman admin" style="whiteSpace=wrap;html=1;" vertex="1" parent="1">
          <mxGeometry x="566" y="695" width="120" height="60" as="geometry" />
        </mxCell>
        <mxCell id="2mTm614n4sQ_2W02o-e6-40" value="" style="edgeStyle=orthogonalEdgeStyle;rounded=0;orthogonalLoop=1;jettySize=auto;html=1;" edge="1" parent="1" source="2mTm614n4sQ_2W02o-e6-41" target="2mTm614n4sQ_2W02o-e6-43">
          <mxGeometry relative="1" as="geometry" />
        </mxCell>
        <mxCell id="2mTm614n4sQ_2W02o-e6-41" value="Kelola Users" style="rounded=1;whiteSpace=wrap;html=1;" vertex="1" parent="1">
          <mxGeometry x="566" y="835" width="120" height="60" as="geometry" />
        </mxCell>
        <mxCell id="2mTm614n4sQ_2W02o-e6-42" value="" style="edgeStyle=orthogonalEdgeStyle;rounded=0;orthogonalLoop=1;jettySize=auto;html=1;" edge="1" parent="1" source="2mTm614n4sQ_2W02o-e6-43" target="2mTm614n4sQ_2W02o-e6-45">
          <mxGeometry relative="1" as="geometry" />
        </mxCell>
        <mxCell id="2mTm614n4sQ_2W02o-e6-43" value="Kelola Layanan" style="rounded=1;whiteSpace=wrap;html=1;" vertex="1" parent="1">
          <mxGeometry x="566" y="975" width="120" height="60" as="geometry" />
        </mxCell>
        <mxCell id="2mTm614n4sQ_2W02o-e6-44" value="" style="edgeStyle=orthogonalEdgeStyle;rounded=0;orthogonalLoop=1;jettySize=auto;html=1;" edge="1" parent="1" source="2mTm614n4sQ_2W02o-e6-45" target="2mTm614n4sQ_2W02o-e6-47">
          <mxGeometry relative="1" as="geometry" />
        </mxCell>
        <mxCell id="2mTm614n4sQ_2W02o-e6-45" value="Kelola Informasi" style="whiteSpace=wrap;html=1;rounded=1;" vertex="1" parent="1">
          <mxGeometry x="566" y="1115" width="120" height="60" as="geometry" />
        </mxCell>
        <mxCell id="2mTm614n4sQ_2W02o-e6-46" value="" style="edgeStyle=orthogonalEdgeStyle;rounded=0;orthogonalLoop=1;jettySize=auto;html=1;" edge="1" parent="1" source="2mTm614n4sQ_2W02o-e6-47" target="2mTm614n4sQ_2W02o-e6-48">
          <mxGeometry relative="1" as="geometry" />
        </mxCell>
        <mxCell id="2mTm614n4sQ_2W02o-e6-47" value="Laporan &amp;amp; Export" style="whiteSpace=wrap;html=1;rounded=1;" vertex="1" parent="1">
          <mxGeometry x="566" y="1255" width="120" height="60" as="geometry" />
        </mxCell>
        <mxCell id="2mTm614n4sQ_2W02o-e6-48" value="Selesai" style="whiteSpace=wrap;html=1;rounded=1;arcSize=50;" vertex="1" parent="1">
          <mxGeometry x="566" y="1395" width="120" height="60" as="geometry" />
        </mxCell>
      </root>
    </mxGraphModel>
  </diagram>
</mxfile>
